<svg width="1647" height="454" viewBox="0 0 1647 454" fill="none" xmlns="http://www.w3.org/2000/svg">
<path d="M112.32 180.621C111.663 176.222 111.702 172.132 112.416 168.428C113.73 161.714 115.739 155.386 118.423 149.617L161.323 56.76C165.128 48.5991 168.663 43.4672 171.831 41.5186C173.724 40.2838 178.128 38.779 188.288 38.6246H210.5C213.939 38.6246 216.469 39.0876 218.072 39.9944C221.182 41.7115 222.36 44.0074 221.723 47.21C221.587 47.9238 220.68 50.6056 216.256 60.5029L180.291 138.562C173.685 152.646 167.813 163.007 162.849 169.412C161.091 171.727 158.155 175.161 154.138 179.637L151.24 182.859H264.12L263.734 180.602C262.961 176.222 262.942 172.19 263.618 168.64C264.951 161.811 266.979 155.425 269.664 149.637L312.969 55.5446C316.504 48.1747 319.865 43.39 322.897 41.3642C325.775 39.5507 330.334 38.6246 336.399 38.6246H358.612C365.063 38.6246 369.293 39.8015 371.225 42.1166C372.403 43.5443 372.731 45.4929 372.229 48.0975C371.727 50.6635 370.433 54.2905 368.347 58.8823L331.512 138.562C325.022 152.627 319.169 162.987 314.089 169.393C312.293 171.746 309.376 175.181 305.378 179.618L302.481 182.84H415.129L414.8 180.621C414.144 176.222 414.182 172.132 414.897 168.428C416.191 161.83 418.2 155.502 420.904 149.617L456.87 71.5578C461.389 61.8341 464.036 54.8693 464.924 50.2583C467.764 35.7114 464.886 23.2288 456.387 13.1771C449.085 4.43739 437.728 0 422.643 0H357.124C349.398 0 343.237 1.08041 338.833 3.22193C334.699 5.15123 330.527 8.87479 326.142 14.5662C324.732 9.41499 322.26 5.59497 318.706 3.18335C315.403 1.06112 309.782 0.019293 301.515 0.019293H210.674C200.804 0.019293 193.039 1.21546 187.534 3.5885C185.158 4.70749 182.705 6.38599 180.156 8.68186L184.135 0.019293H83.2305L83.5975 2.25728C84.3315 6.75255 84.3701 10.8427 83.6748 14.4119C82.3806 20.9908 80.3525 27.3768 77.6483 33.3962L29.0505 138.543C22.4446 152.608 16.5727 162.987 11.6086 169.393C9.85091 171.708 6.93427 175.142 2.89733 179.618L0 182.84H112.648L112.32 180.621Z" fill="#FFF500"/>
<path d="M452.253 138.987C449.588 152.704 453.2 164.28 462.973 173.386C471.163 181.065 484.105 184.962 501.411 184.962H554.645C563.047 184.962 570.812 183.669 577.727 181.084C582.285 179.309 586.612 176.319 590.649 172.171C590.166 175.817 590.185 179.541 590.707 183.303L590.939 184.962H683.846L683.537 182.763C682.9 178.267 682.938 174.177 683.634 170.57C684.966 163.74 686.995 157.335 689.679 151.585L725.278 74.4132C729.952 64.3229 732.965 56.0269 734.202 49.7181C737.08 34.9782 733.545 22.4764 723.713 12.5212C716.798 5.63355 706.001 2.16081 691.592 2.16081H522.272L489.667 50.7985L496.215 47.5187C505.158 43.0427 518.022 40.7661 534.479 40.7661H625.339C631.675 40.7661 636.233 41.2677 638.841 42.2517C640.464 42.8498 641.989 44.0267 641.198 48.0975C640.193 53.2487 637.895 57.1073 634.36 59.5575C633.143 60.445 630.033 61.5061 622.191 61.5061H536.121C526.657 61.5061 520.611 61.6798 517.578 62.0656C509.698 63.1653 502.57 65.4033 496.389 68.7024C484.162 75.4164 473.983 87.5324 466.141 104.703L458.183 121.97C455.209 128.241 453.2 133.971 452.234 139.006L452.253 138.987ZM602.373 134.607C599.206 141.263 596.984 143.656 595.632 144.524C594.628 145.199 591.421 146.337 581.068 146.337H558.855C551.67 146.337 548.541 145.411 547.189 144.64C545.856 143.868 544.195 142.344 545.006 138.119C545.122 137.54 545.624 135.842 547.788 131.077L556.287 112.883C559.763 105.263 562.525 102.581 564.264 101.636C565.944 100.69 569.672 99.5519 577.901 99.5519H618.56L602.373 134.588V134.607Z" fill="#FFF500"/>
<path d="M1002.65 90.5035C1000.87 99.4555 1001.7 107.385 1005.12 114.041C1010.01 123.514 1018.55 128.974 1030.5 130.228C1037.55 131.057 1045.72 131.482 1054.76 131.482H1109.85C1112.36 131.482 1113.64 131.578 1114.2 131.636C1115.26 131.791 1115.97 132.119 1116.3 132.582C1116.75 133.199 1116.65 134.26 1116.49 135.051C1114.97 142.749 1110.43 146.337 1102.2 146.337H1028.3C1010.86 145.874 1000.2 145.508 996.719 145.276C992.102 144.813 986.056 143.347 978.774 140.916L976.901 140.279L963.264 184.943H1132.35C1148.23 184.943 1160.34 183.959 1168.28 182.049C1174.73 180.583 1181.34 177.766 1187.94 173.695C1194.55 169.624 1200.11 164.897 1204.46 159.688C1208.9 154.595 1213.61 146.781 1218.42 136.44L1231.34 108.986C1234.82 101.636 1237.1 95.3654 1238.1 90.3685C1240.15 80.0467 1237.47 70.6703 1230.15 62.49C1224.06 55.7954 1214.15 52.4191 1200.71 52.4191H1126.69C1120.63 52.4191 1118.39 52.2455 1117.63 52.1104C1114.99 51.5509 1114.7 50.3547 1115.06 48.4833C1116.09 43.2935 1120.3 40.7661 1127.89 40.7661H1214.64C1225.7 40.7661 1234.78 41.1713 1241.56 41.9816C1247.05 42.7919 1252.75 44.4897 1258.54 47.017L1260.65 47.9431L1271.81 2.1415H1095.54C1076.84 2.50806 1062.74 5.03545 1053.7 9.64648C1042.92 14.7977 1032.7 26.1034 1023.3 43.3707L1006.18 79.738C1004.62 83.0564 1003.44 86.6835 1002.67 90.5228L1002.65 90.5035Z" fill="#FFF500"/>
<path d="M841.46 146.337H767.559C750.117 145.874 739.455 145.508 735.978 145.276C731.362 144.813 725.316 143.347 718.054 140.916L716.18 140.279L702.543 184.943H871.631C887.509 184.943 899.619 183.959 907.558 182.049C914.009 180.583 920.615 177.766 927.221 173.695C933.827 169.624 939.39 164.897 943.736 159.688C948.179 154.595 952.892 146.781 957.701 136.44L970.623 108.986C974.1 101.636 976.379 95.3654 977.384 90.3685C979.431 80.0467 976.746 70.6703 969.426 62.49C963.341 55.7954 953.432 52.4191 939.989 52.4191H865.972C859.907 52.4191 857.666 52.2455 856.913 52.1104C854.267 51.5509 853.977 50.3547 854.344 48.4833C855.368 43.2935 859.578 40.7661 867.169 40.7661H953.915C964.983 40.7661 974.061 41.1713 980.841 41.9816C986.327 42.7919 992.025 44.4897 997.819 47.017L999.925 47.9431L1011.09 2.1415H834.816C816.119 2.50806 802.018 5.03545 792.979 9.64648C782.2 14.7977 771.983 26.1034 762.576 43.3707L745.462 79.738C743.898 83.0564 742.72 86.6835 741.947 90.5228C740.17 99.4748 741 107.404 744.419 114.06C749.306 123.533 757.844 128.993 769.8 130.247C776.85 131.077 785.021 131.501 794.06 131.501H849.148C851.659 131.501 852.934 131.598 853.494 131.656C854.556 131.81 855.271 132.138 855.599 132.601C856.044 133.218 855.947 134.279 855.793 135.07C854.267 142.768 849.727 146.357 841.499 146.357L841.46 146.337Z" fill="#FFF500"/>
<path d="M339.078 385.492C338.43 380.921 338.47 376.743 339.176 373.095C340.531 366.131 342.592 359.639 345.301 353.794L381.5 275.333C386.329 264.917 389.294 256.699 390.55 250.226C393.475 235.259 389.882 222.529 379.89 212.388C372.863 205.405 361.889 201.855 347.245 201.855H175.162L142.026 251.304L148.68 247.97C157.769 243.419 170.883 241.105 187.667 241.105H279.931C286.37 241.105 290.983 241.615 293.673 242.615C295.223 243.184 296.872 244.38 296.068 248.558C295.047 253.815 292.711 257.719 289.099 260.21C287.842 261.112 284.701 262.191 276.731 262.191H189.257C179.618 262.191 173.474 262.367 170.412 262.74C162.422 263.858 155.178 266.114 148.877 269.488C136.451 276.294 126.105 288.612 118.135 306.09L110.047 323.645C107.024 330.04 104.983 335.865 104.001 340.965C101.292 354.892 104.963 366.661 114.896 375.939C123.22 383.746 136.372 387.708 153.961 387.708H208.063C216.583 387.708 224.474 386.394 231.522 383.765C236.155 381.941 240.552 378.901 244.655 374.684C244.164 378.371 244.184 382.177 244.714 386.002L244.949 387.688H339.392L339.078 385.452V385.492ZM256.571 336.532C253.351 343.299 251.094 345.732 249.72 346.634C248.718 347.321 245.44 348.478 234.918 348.478H212.343C205.06 348.478 201.86 347.536 200.486 346.752C199.131 345.967 197.423 344.417 198.268 340.122C198.385 339.514 198.915 337.788 201.094 332.962L209.732 314.465C213.265 306.737 216.073 303.991 217.839 303.03C219.547 302.068 223.316 300.931 231.699 300.931H273.021L256.571 336.532Z" fill="#FFF500"/>
<path d="M621.937 343.084L655.21 270.978C660.216 260.327 663.161 252.481 664.241 246.97C667.539 230.081 661.571 216.9 646.495 207.759C639.761 203.797 628.866 201.874 613.201 201.874H561.533C552.346 201.874 544.867 203.012 539.213 205.307C535.346 207.033 531.459 209.681 527.572 213.251L529.79 201.894H428.83L429.222 204.189C429.988 208.661 430.027 212.82 429.301 216.527C428.005 223.216 425.924 229.708 423.176 235.848L322.746 453.38H428.673L428.3 451.104C427.534 446.534 427.534 442.317 428.26 438.57C429.536 431.979 431.598 425.526 434.366 419.445L455.547 373.467C457.117 377.43 459.159 380.451 461.672 382.49C466.167 385.943 473.372 387.669 483.737 387.787H550.932C568.953 387.296 582.872 384.099 592.235 378.312C603.817 371.977 613.829 360.149 621.956 343.162L621.937 343.084ZM472.763 339.376C473.47 335.689 475.197 330.922 477.906 325.155L509.649 256.13C512.437 250.284 515.067 246.361 517.403 244.537C520.387 242.38 525.707 241.222 533.226 241.105H554.093C563.359 241.105 566.853 242.968 568.149 244.537C568.993 245.557 569.228 246.871 568.914 248.558C568.522 250.539 567.56 253.05 566.028 256.032C565.008 258.091 564.026 260.19 563.123 262.23L533.775 325.665C531.42 330.883 529.456 334.924 527.925 337.69C526.139 341.024 523.96 343.594 521.447 345.379C518.758 347.399 514.027 348.439 507.411 348.439H485.778C479.693 348.439 475.531 347.281 473.725 345.104C472.606 343.731 472.292 341.848 472.783 339.357L472.763 339.376Z" fill="#FFF500"/>
<path d="M931.139 246.97C934.437 230.081 928.47 216.9 913.393 207.759C906.66 203.797 895.765 201.874 880.1 201.874H828.432C819.245 201.874 811.765 203.012 806.112 205.307C802.245 207.033 798.338 209.681 794.471 213.251L796.689 201.874H695.729L696.121 204.169C696.906 208.642 696.926 212.78 696.2 216.507C694.884 223.216 692.823 229.728 690.055 235.828L589.625 453.36H695.552L695.179 451.085C694.413 446.495 694.413 442.277 695.14 438.551C696.435 431.96 698.477 425.506 701.245 419.426L722.426 373.448C723.997 377.41 726.038 380.431 728.551 382.471C733.046 385.923 740.251 387.649 750.616 387.767H817.831C835.852 387.277 849.77 384.079 859.134 378.293C870.736 371.957 880.728 360.129 888.855 343.143L922.129 271.037C927.135 260.386 930.079 252.54 931.159 247.028L931.139 246.97ZM739.642 339.396C740.369 335.708 742.096 330.942 744.786 325.175L776.528 256.149C779.316 250.304 781.946 246.381 784.282 244.557C787.266 242.399 792.586 241.242 800.124 241.124H820.992C830.257 241.124 833.752 242.988 835.047 244.557C835.891 245.577 836.127 246.891 835.813 248.578C835.44 250.539 834.458 253.05 832.947 256.051C831.906 258.111 830.925 260.21 830.022 262.269L800.674 325.705C798.279 330.981 796.316 335.022 794.824 337.729C793.018 341.063 790.859 343.633 788.346 345.418C785.657 347.438 780.926 348.478 774.31 348.478H752.677C746.592 348.478 742.43 347.321 740.624 345.143C739.505 343.77 739.191 341.887 739.662 339.396H739.642Z" fill="#FFF500"/>
<path d="M1007.72 330.216L1014.96 314.504H1168.85L1190.15 268.075C1192.97 262.014 1195.01 255.836 1196.21 249.676C1197.94 240.751 1197.35 232.65 1194.42 225.53C1189.79 214.33 1181.19 207.17 1168.81 204.248C1161.64 202.659 1151.36 201.835 1138.24 201.835H1020.85C987.852 201.835 964.668 216.115 951.947 244.282L914.845 324.567C912.411 329.883 910.723 334.904 909.82 339.514C907.15 353.166 910.644 365.092 920.165 374.939C928.253 383.393 942.171 387.688 961.566 387.688H1125.87L1153.22 343.162L1148.23 344.712C1140.24 347.183 1129.09 348.419 1115.06 348.419H1024.86C1012.1 347.948 1009.27 347.438 1008.5 347.203C1007.01 346.85 1005.89 345.967 1005.05 344.496C1004.16 342.986 1003.91 341.416 1004.22 339.71C1004.64 337.572 1005.81 334.355 1007.7 330.177L1007.72 330.216ZM1033.16 275.235L1041.33 257.366C1045.64 248.068 1048.8 244.714 1050.67 243.556C1053.44 241.928 1057.99 241.105 1064.2 241.105H1093.11C1097.57 241.105 1100.61 241.948 1101.93 243.537C1102.77 244.576 1103 246.028 1102.61 248.009C1102.22 250.01 1101.3 252.599 1099.86 255.718L1090.95 275.235H1033.16Z" fill="#FFF500"/>
<path d="M1417.84 353.774L1454.04 275.313C1458.81 265.055 1461.85 256.601 1463.09 250.206C1466.02 235.24 1462.42 222.509 1452.43 212.368C1445.4 205.385 1434.43 201.835 1419.79 201.835H1247.7L1214.57 251.285L1221.22 247.95C1230.31 243.4 1243.42 241.085 1260.21 241.085H1352.47C1358.89 241.085 1363.52 241.595 1366.21 242.595C1367.74 243.164 1369.41 244.361 1368.61 248.539C1367.57 253.874 1365.29 257.679 1361.64 260.19C1360.4 261.092 1357.24 262.171 1349.27 262.171H1261.8C1252.18 262.171 1246.01 262.348 1242.95 262.72C1234.96 263.839 1227.72 266.094 1221.42 269.468C1208.99 276.294 1198.65 288.593 1190.68 306.07L1182.59 323.645C1179.56 330.04 1177.52 335.865 1176.54 340.965C1173.83 354.912 1177.5 366.681 1187.44 375.939C1195.76 383.746 1208.89 387.708 1226.5 387.708H1280.58C1289.1 387.708 1297 386.394 1304.06 383.765C1308.7 381.941 1313.09 378.901 1317.2 374.684C1316.7 378.371 1316.72 382.177 1317.25 386.021L1317.49 387.708H1411.91L1411.6 385.472C1410.95 380.882 1410.99 376.704 1411.7 373.075C1413.05 366.112 1415.13 359.619 1417.82 353.774H1417.84ZM1329.09 336.532C1325.89 343.299 1323.61 345.732 1322.24 346.614C1321.22 347.301 1317.96 348.458 1307.44 348.458H1284.86C1277.58 348.458 1274.38 347.517 1272.99 346.732C1271.63 345.947 1269.92 344.398 1270.77 340.102C1270.89 339.494 1271.42 337.748 1273.6 332.943L1282.25 314.446C1285.79 306.698 1288.59 303.971 1290.36 303.01C1292.07 302.049 1295.84 300.911 1304.22 300.911H1345.54L1329.07 336.513L1329.09 336.532Z" fill="#FFF500"/>
<path d="M1546.15 353.97L1646.38 136.438H1540.69L1541.02 138.694C1541.69 143.147 1541.65 147.325 1540.93 151.071C1539.59 157.976 1537.53 164.409 1534.84 170.196L1455.32 342.711C1448.58 357.03 1442.64 367.583 1437.59 374.076C1435.78 376.449 1432.8 379.96 1428.74 384.452L1425.79 387.728H1540.28L1539.94 385.472C1539.28 381 1539.32 376.841 1540.04 373.095C1541.38 366.269 1543.42 359.835 1546.15 353.97Z" fill="#FFF500"/>
</svg>
